# xmcd
#
# Track frame offsets: 
#        183
#        46158
#        59133
#        69108
#        72333
#        78933
#        94533
#        99408
#        106158
#        109908
#        129408
#        140058
#        148383
#        181233
#        201333
#        228783
#
# Disc length: 4010 seconds
#
# Revision: 15
# Processed by: cddbd v1.5.2PL0 Copyright (c) Steve Scherf et al.
# Submitted via: ExactAudioCopyFreeDBPlugin 1.0
#
DISCID=e20fa810
DTITLE=Pierre Boulez - Boulez conducts Webern 1
DYEAR=2000
DGENRE=Classical
TTITLE0=Passacaglia for Orchestra op1 (1908)
TTITLE1=5 Movements op5 (1909) - 1 Heftig bewegt
TTITLE2=5 Movements op5 (1909) - 2 Sehr langsam
TTITLE3=5 Movements op5 (1909) - 3 Sehr lebhaft
TTITLE4=5 Movements op5 (1909) - 4 Sehr langsam
TTITLE5=5 Movements op5 (1909) - 5 In zarter Bewegung
TTITLE6=6 Pieces for Orchestra op6 (1909) - 1 Etwas bewegte Achtel
TTITLE7=6 Pieces for Orchestra op6 (1909) - 2 Bewegt
TTITLE8=6 Pieces for Orchestra op6 (1909) - 3 Zart bewegt
TTITLE9=6 Pieces for Orchestra op6 (1909) - 4 Langsam - Marcia funebre
TTITLE10=6 Pieces for Orchestra op6 (1909) - 5 Sehr langsam
TTITLE11=6 Pieces for Orchestra op6 (1909) - 6 Zart bewegt
TTITLE12=Fuga a 6 voci from "The Musical Offering" (orch1934-5) - sehr
TTITLE12=massig
TTITLE13=German Dances D820 (orch 1931) - 1 A-flat major
TTITLE14=German Dances D820 (orch 1931) - 2 B-flat major
TTITLE15=Im Sommerwind, Idyll for Large Orchestra (1904)
EXTD=YEAR: 2000
EXTT0=
EXTT1=
EXTT2=
EXTT3=
EXTT4=
EXTT5=
EXTT6=
EXTT7=
EXTT8=
EXTT9=
EXTT10=
EXTT11=
EXTT12=
EXTT13=
EXTT14=
EXTT15=
PLAYORDER=
